<svg width="165" height="422" xmlns="http://www.w3.org/2000/svg">
 <g>
  <title>Layer 1</title>
  <path id="logo" class="cls-1" d="m-200.256,108.288a8.5,8.5 0 0 0 6.742,3.136a7.246,7.246 0 0 0 6.048,-2.647a13.187,13.187 0 0 0 2.149,-5.121l1.226,-5.195a17.78,17.78 0 0 1 1.227,-3.933a2.536,2.536 0 0 1 2.37,-1.442a3.052,3.052 0 0 1 2.693,1.462a7.024,7.024 0 0 1 0.963,3.913a8.172,8.172 0 0 1 -0.743,3.685a4.238,4.238 0 0 1 -3.8,2.388l0,5.946a8.82,8.82 0 0 0 7.2,-3.507a13.187,13.187 0 0 0 2.482,-8.082q0,-5.674 -2.632,-8.6a8.517,8.517 0 0 0 -6.611,-2.928q-4.362,0 -6.41,2.992a19.947,19.947 0 0 0 -2.27,6.493l-0.7,3.2a14.093,14.093 0 0 1 -1.387,4.111a2.532,2.532 0 0 1 -2.271,1.3a3.445,3.445 0 0 1 -3.435,-2.645a11.353,11.353 0 0 1 -0.483,-3.631q0,-3.732 1.829,-5.27a5.993,5.993 0 0 1 3.034,-1.128l0,-5.906a8.745,8.745 0 0 0 -7.264,3.35q-2.642,3.349 -2.642,9.2q0.003,5.721 2.685,8.859zm101.04,79.434l0.889,-1.447a122.046,122.046 0 0 0 -11.417,-8.249l-7.118,7.959l-29.208,0l0,-6.514l-26.487,0c0,3.208 -2.1,5.622 -5.97,5.622l-12.22,0a10.305,10.305 0 0 1 -4.457,-0.72q-2.492,-1.12 -2.49,-4.864q0,-3.762 2.49,-4.883a10.305,10.305 0 0 1 4.457,-0.72l18.19,0l0,-6.287l-18.2,0a15.278,15.278 0 0 0 -7.354,1.464q-4.823,2.746 -4.822,10.426t4.822,10.407a15.266,15.266 0 0 0 7.354,1.465l20.84,0l0,-6.547c0,-1.734 0.994,-3.878 5.38,-3.878l16.737,0l0,6.766l48.583,0l0.001,0zm-92.29,-31.629q-0.944,0.941 -3.776,0.978l-2.754,0.04a14.707,14.707 0 0 0 -2.551,0.261q-0.6,0.121 -1.588,0.4l0,6.828l0.744,0a2.477,2.477 0 0 1 1.687,-1.142a15.057,15.057 0 0 1 2.754,-0.164l1.99,0a9.749,9.749 0 0 0 4.632,-0.853a5.536,5.536 0 0 0 2.342,-2.9a5.943,5.943 0 0 0 2.883,3.515a8.857,8.857 0 0 0 4.143,1.066a8.329,8.329 0 0 0 3.116,-0.549a9.228,9.228 0 0 0 2.491,-1.489a7.3,7.3 0 0 0 2.069,-2.771a12.891,12.891 0 0 0 0.764,-4.672l0,-14.161l-29.615,0l0,6.047l11.615,0l0,6.041q0,2.584 -0.946,3.525zm5.848,-9.566l7.958,0l0,6.829a6.126,6.126 0 0 1 -0.523,2.86q-0.925,1.7 -3.618,1.7a3.333,3.333 0 0 1 -3.335,-1.755a7.092,7.092 0 0 1 -0.482,-2.976l0,-6.657l0,-0.001zm38.479,-131.427l20.379,0q-5.634,14.334 -13.742,30.813l-19.772,0l20.652,-11.753l0,-6.481l-29.617,0l0,5.765l21.015,0l-21.015,12.056l0,6.185l25.867,0c-0.692,1.368 -1.378,2.73 -2.094,4.118l-23.773,0l0,12.765a10.7,10.7 0 0 0 5.526,9.93a19.676,19.676 0 0 0 10,2.372a22.964,22.964 0 0 0 4.9,-0.562a13.186,13.186 0 0 0 4.783,-2.112c0.093,-0.065 0.166,-0.143 0.256,-0.21c0.66,2.036 1.362,4 2.095,5.894l-27.56,0l0,22.435l5.325,0l0,-16.393l7.615,0l0,14.378l5.139,0l0,-14.378l6.29,0l0,15.667l5.244,0l0,-16.783a81.543,81.543 0 0 0 9.159,15.731a99.465,99.465 0 0 1 -9.159,16.917l0,-12.2l-29.613,0l0,6.046l11.614,0l0,6.041q0,2.585 -0.945,3.526t-3.778,0.978l-2.752,0.039a14.807,14.807 0 0 0 -2.552,0.262q-0.6,0.121 -1.587,0.4l0,6.829l0.743,0a2.472,2.472 0 0 1 1.688,-1.142a14.935,14.935 0 0 1 2.753,-0.164l1.989,0a9.76,9.76 0 0 0 4.631,-0.853a5.536,5.536 0 0 0 2.342,-2.9a5.946,5.946 0 0 0 2.883,3.515a9.1,9.1 0 0 0 3.309,1.012a74.549,74.549 0 0 1 -6.028,5.555l0.89,1.013q17.793,-9.263 29.507,-27.93q23.277,24.166 70.284,24.168q21.648,0 38.552,-0.579a1.838,1.838 0 0 0 1.928,-1.3a53.834,53.834 0 0 1 4,-9.695c-2.2,0.112 -4.433,0.211 -6.684,0.3a3.83,3.83 0 0 1 -3.631,-3.785l0,-1.353l-14.691,0l0,5.4l1.077,0a20.927,20.927 0 0 1 3.052,0.2c2.07,0.31 3.531,1.066 3.531,2.792l0,1.436l-11.811,0c-2.144,0 -3.474,-1 -3.474,-3.056l0,-0.978q-4.964,0.051 -10.07,0.053c-4.084,0 -7.117,-2.271 -7.117,-6.7l0,-12.34c0,-2.311 2.216,-3.851 4.835,-3.851c1.868,0 3.485,-1.632 4.267,-2.576l35.233,0l1.038,-1.3a98.048,98.048 0 0 0 -12.011,-8.683l-7.414,8.1l-25.948,0l0,-17.943l36.773,0l0.889,-1.447a72.869,72.869 0 0 0 -11.417,-8.394l-7.117,7.96l-19.128,0l0,-17.656l13.754,0c2.983,0.207 6.708,1.613 6.708,3.99l0,1.756a0.588,0.588 0 0 0 0.593,0.723q0.446,0 11.566,-0.434l0,-26.873l16.311,0l0.889,-1.447a106.338,106.338 0 0 0 -8.748,-7.815l-5.783,7.525l-2.664,0l0,-7.235a26.809,26.809 0 0 1 2.669,-11.577a68.855,68.855 0 0 0 -10.231,-6.947l-5.635,5.5l-19.429,0l0,-13.314a1.141,1.141 0 0 1 0.89,-1.158l2.52,-0.724a1.208,1.208 0 0 0 0.89,-1.447l-16.607,-0.868a4.874,4.874 0 0 1 -5.083,4.636l0,12.874l-25.315,0l0.3,1.881l25.018,0l0,18.379l-35.697,0l0.3,1.737l35.4,0l0,19.1l-24.134,0l0.445,1.736l23.683,0l0,17.658l-33.369,0c1.282,-4.879 2.4,-9.974 3.31,-15.34a11.8,11.8 0 0 1 2.52,-5.5a64.848,64.848 0 0 0 -9.934,-7.959l-6.079,5.065l-11.121,0q5.783,-11.288 13.79,-28.8a32.318,32.318 0 0 1 5.189,-8.676a67.872,67.872 0 0 0 -9.934,-8.1l-5.339,4.775l-19.492,0l0.296,1.725zm2.374,52.414q0,4.226 -2.422,5.643a13.887,13.887 0 0 1 -6.943,1.418a15.2,15.2 0 0 1 -5.645,-0.945a6.171,6.171 0 0 1 -4.321,-6.116l0,-5.713l15.492,0c-0.033,0.063 -0.064,0.124 -0.1,0.186a0.72,0.72 0 0 0 0.593,0.869c0.826,0.107 3.382,0.9 3.343,3.3l0,1.361l0.003,-0.003zm0,54.615a6.126,6.126 0 0 1 -0.523,2.86q-0.926,1.7 -3.618,1.7a3.335,3.335 0 0 1 -3.335,-1.755a7.112,7.112 0 0 1 -0.482,-2.976l0,-6.658l7.963,0l0,6.83l-0.005,-0.001zm120.724,2.51l0.388,0l-0.389,0.013l0,-0.013l0.001,0zm-35.545,-105.339l13.011,0l0,18.379l-13.011,0l0,-18.379zm0,20.115l13.011,0l0,19.1l-13.011,0l0,-19.1zm-17.39,84.085q-28.143,-3.9 -44.145,-17.519c0.106,-0.2 0.2,-0.4 0.305,-0.6l21.941,0l0,-5.767l21.9,0l0,23.886l-0.001,0zm-33.859,-43.712l33.859,0l0,17.945l-24.128,0l0.013,0.084l0,5.683l-18.769,0a126.793,126.793 0 0 0 9.025,-23.709l0,-0.003zm-8.655,-23.733q-1.929,24.312 -8.749,42.835a85.887,85.887 0 0 1 -13.607,-22.78a9.751,9.751 0 0 0 1.581,-2.966a15.616,15.616 0 0 0 0.643,-4.583l0,-1.885c0.054,-2.072 1.414,-2.59 2.635,-2.372l4.448,-8.249l13.049,0zm-82.645,26.973l29.618,0l0,-5.765l-20.652,0l20.652,-11.753l0,-6.485l-29.618,0l0,5.765l21.015,0l-21.015,12.053l0,6.185zm29.618,29.921l-5.243,0l0,8.9l-24.375,0l0,6.227l24.375,0l0,8.858l5.244,0l0,-23.982l-0.001,-0.003zm196.408,238.54l-24.374,0l0,6.227l24.374,0l0,8.858l5.243,0l0,-23.98l-5.243,0l0,8.9l0,-0.005zm5.243,-313.313l-29.617,-10.565l0,6.47l6.088,2.007l0,10.9l-6.088,1.953l0,6.71l29.617,-10.475l0,-7zm-18.425,7.174l0,-7.579l11.654,3.842l-11.654,3.737zm18.425,-19.89l0,-7.993l-12.2,-11.438l12.2,0l0,-6.087l-29.617,0l0,6.086l9.906,0l3.023,2.979l-12.929,9.122l0,7.955l17.437,-12.773l12.18,12.149zm-5.243,101.34l5.243,0l0,-23.982l-5.243,0l0,8.9l-24.374,0l0,6.227l24.374,0l0,8.855zm5.243,144.759l-29.617,0l0,7.325l29.617,0l0,-7.324l0,-0.001zm-20.956,-119.123a7.247,7.247 0 0 0 6.048,-2.647a13.2,13.2 0 0 0 2.149,-5.121l1.225,-5.195a17.892,17.892 0 0 1 1.227,-3.933a2.539,2.539 0 0 1 2.371,-1.442a3.055,3.055 0 0 1 2.693,1.462a7.024,7.024 0 0 1 0.963,3.913a8.179,8.179 0 0 1 -0.743,3.686a4.242,4.242 0 0 1 -3.8,2.387l0,5.946a8.822,8.822 0 0 0 7.2,-3.507a13.187,13.187 0 0 0 2.482,-8.082q0,-5.674 -2.632,-8.6a8.518,8.518 0 0 0 -6.611,-2.929q-4.362,0 -6.41,2.994a19.906,19.906 0 0 0 -2.27,6.492l-0.7,3.206a14.036,14.036 0 0 1 -1.387,4.11a2.53,2.53 0 0 1 -2.27,1.3a3.445,3.445 0 0 1 -3.435,-2.645a11.325,11.325 0 0 1 -0.483,-3.631q0,-3.732 1.828,-5.27a6,6 0 0 1 3.034,-1.128l0,-5.905a8.742,8.742 0 0 0 -7.263,3.349q-2.643,3.349 -2.642,9.2q0,5.726 2.681,8.862a8.5,8.5 0 0 0 6.745,3.128zm-4.438,54.508a8.657,8.657 0 0 0 4.723,1.319a7.838,7.838 0 0 0 4.34,-1.154a6.592,6.592 0 0 0 2.612,-3.419a7.071,7.071 0 0 0 1.688,2.258a6.6,6.6 0 0 0 4.361,1.371a7.539,7.539 0 0 0 4.52,-1.359q3.075,-2.257 3.154,-7.673l0,-14.308l-29.621,0l0,13.34a20.433,20.433 0 0 0 0.4,4.184a8.146,8.146 0 0 0 3.823,5.441zm13.724,-17.06l6.531,0l0,6.44a11.119,11.119 0 0 1 -0.463,3.5a2.653,2.653 0 0 1 -2.731,1.591a2.8,2.8 0 0 1 -2.6,-1.2a5.937,5.937 0 0 1 -0.734,-3.13l0,-7.2l-0.003,-0.001zm-12.8,0l7.9,0l0,7.287a7.485,7.485 0 0 1 -0.5,2.959a3.18,3.18 0 0 1 -3.174,1.886a3.73,3.73 0 0 1 -3.7,-1.946a6.987,6.987 0 0 1 -0.522,-3l0,-7.188l-0.004,0.002zm91.668,113.816l2.521,-0.724a1.363,1.363 0 0 0 1.038,-1.013l64.107,0l1.038,-1.3a95.321,95.321 0 0 0 -12.456,-8.828l-7.71,8.394l-49.43,0l0,-22.288a1.139,1.139 0 0 1 0.889,-1.157l2.521,-0.724a1.342,1.342 0 0 0 1.038,-1.447c-2.681,0 -5.921,-3.748 -5.921,-6.424l0,-1.6l22.5,0l0,-6.584l6.689,0c1.869,0 4.317,0.1 4.317,4.888l0,2.058a0.647,0.647 0 0 0 0.741,0.723q0.591,0 11.714,-0.434l0,-44.606l0.445,0.543a66.064,66.064 0 0 0 12.9,10.275q1.63,1.014 2.521,-0.869a72.2,72.2 0 0 1 6.376,-10.274a72.982,72.982 0 0 1 -32.176,-24.6l30.4,0l1.038,-1.592a66.467,66.467 0 0 0 -11.863,-8.248l-7.117,7.959l-13.79,0a79.645,79.645 0 0 1 -6.768,-11.352c-0.934,-3.094 0.156,-6.448 2,-6.448l24.633,0l0.89,-1.3a74.086,74.086 0 0 0 -11.121,-7.96l-6.821,7.525l-27.435,0q3.26,-9.839 5.041,-16.931l44.187,0l0.89,-1.3a70.951,70.951 0 0 0 -11.566,-8.249l-7.117,7.815l-25.946,0l2.165,-10.384l0,0c0.666,-4.167 5.276,-6.492 8.008,-6.492l2.138,0l0,-47.792l11.973,0c4.366,0 7.451,1.957 7.451,4.933l0,0.856a0.6,0.6 0 0 0 0.742,0.579q0.3,0 11.418,-0.435l0,-60.2a23.721,23.721 0 0 1 2.223,-10.13a65.265,65.265 0 0 0 -9.638,-6.223l-5.787,5.06l-18.382,0l0,-23.439a1.028,1.028 0 0 1 0.741,-1.013l2.669,-0.868a1.229,1.229 0 0 0 0.89,-1.3l-16.459,-0.868c-0.188,4.15 -1.759,6.38 -5.9,6.38l0,21.108l-11.897,0q-6.081,-2.313 -12.752,-4.2l0,4.723c-0.394,2.4 -3.467,3.571 -5.838,1.355l0,0.029a59.278,59.278 0 0 0 -6.469,-5.094l-6.524,5.065l-6.673,0l0,-25.317a1.066,1.066 0 0 1 0.89,-1.013l2.669,-0.868a1.23,1.23 0 0 0 0.89,-1.3l-16.607,-0.868l0,29.374l-21.436,0l2.228,5.2l13.259,0s0.114,-1.747 2.51,-2.2l17.93,0c2.2,0 4.058,1.948 3.5,3.752a166.778,166.778 0 0 1 -30.324,47.814l0,-5.782l-23.288,-5.348l23.288,-5.389l0,-9l-29.62,0l0,5.767l20.033,0q0.864,0 2.421,-0.02t2.4,-0.02l-24.856,5.57l0,6.012l24.856,5.611q-0.845,0 -2.4,-0.02t-2.421,-0.02l-20.033,0l0,5.764l26.734,0q-2.531,2.662 -5.122,5.15l-21.612,0l0,6.952l29.617,0l0,-6.952l-3.141,0c5.555,-4.251 11.176,-9.021 15.477,-13.055l0,54.184c0,1.93 -1.653,2.662 -3.411,2.662l0,35.021l-19.276,0c-0.066,1.406 -2.815,2.368 -5.237,2.368l-2.6,0a10.285,10.285 0 0 1 -4.456,-0.721q-2.491,-1.119 -2.49,-4.863q0,-3.762 2.49,-4.883a10.288,10.288 0 0 1 4.456,-0.72l18.19,0l0,-6.287l-18.2,0a15.261,15.261 0 0 0 -7.354,1.464q-4.822,2.746 -4.822,10.426t4.822,10.407a15.272,15.272 0 0 0 7.354,1.465l18.2,0l0,-1.755c0,-2.412 1.54,-4.876 4.141,-5.024l3.894,0a203.4,203.4 0 0 1 -10.821,46.307l-26.831,-9.574l0,6.47l6.088,2.007l0,10.9l-6.088,1.953l0,6.71l22.534,-7.969q-2.676,5.922 -5.746,11.394l-16.79,0l0,6.086l9.906,0l3.023,2.979l-12.929,9.121l0,7.955l17.437,-12.773l12.18,12.149l0,-7.993l-12.2,-11.439l12.2,0l0,-6.086l-11.225,0a98.271,98.271 0 0 0 9.927,-13.44l1.3,-0.46l0,-1.675a141.164,141.164 0 0 0 8.925,-18.039l0,71.151a0.647,0.647 0 0 0 0.741,0.723c0.256,0 1.953,-0.062 5.041,-0.183l0,-12.97a5.748,5.748 0 0 1 5.053,-5.5l1.175,0l0,-69.569c0.967,1.572 1.854,3.183 2.674,4.826l0,64.257l2.244,0l0,-23.512a100.36,100.36 0 0 0 22.662,-16.484l0,53.544a0.723,0.723 0 0 0 0.89,0.724c1.636,0 4.3,0.028 4.3,2.948l0,0l0,22.874l-68.427,0c-0.112,0 -0.216,-0.012 -0.329,-0.012s-0.229,0.01 -0.346,0.012l-32.206,0l-2.889,-9.575l-43.578,0l2.267,3.694l40.371,0l2.372,7.617l25.552,0a12.99,12.99 0 0 0 -2.835,1.869q-4.1,3.617 -4.1,9.935a11.832,11.832 0 0 0 3.034,8.377a13.349,13.349 0 0 0 7.877,4.063l0,-6.146a9.346,9.346 0 0 1 -3.436,-1.533a5.8,5.8 0 0 1 -2.128,-4.853a6.312,6.312 0 0 1 2.483,-5.118q2.481,-2.014 7.464,-2.015t7.706,1.909a6.039,6.039 0 0 1 2.723,5.215a6.1,6.1 0 0 1 -1.928,4.9a8.441,8.441 0 0 1 -3.216,1.516l0,6.186a10.69,10.69 0 0 0 5.525,-2.027q4.9,-3.418 4.9,-10.809a12.185,12.185 0 0 0 -3.657,-9.1a12.943,12.943 0 0 0 -3.386,-2.367l60.186,0l0,22.865l-32.325,0c-6.031,-2.8 -10.875,-4.726 -15.792,-5.789l0,76.9a6.564,6.564 0 0 0 2.149,0.724a41.578,41.578 0 0 1 11.568,-1.926l0,-60.312l34.4,0l0,17.459l0,0c0,5.282 -5.486,6.132 -5.486,6.132l0,41.9s5.486,2 5.486,6.694l0,0l0,14.316a0.647,0.647 0 0 0 0.741,0.723q0.741,0 11.863,-0.434l0,-35.651l-8.004,0c-3.73,0 -4.152,-2.75 -4.152,-6.391l0,-7.191c0,-3.374 2.731,-4.394 4.951,-4.394l7.201,0l0,-41.026l16.97,0c3.231,0 6.132,1.809 6.132,5.7l0,2.55l10.133,0c4.768,0 7,2.3 7,7.182l0,47.664q0,1.737 -3.855,1.737q-9.341,0 -21.945,-0.724l0.3,1.158q12.9,2.316 16.9,4.486a9.02,9.02 0 0 1 4.745,6.947q9.786,0 13.641,-3.763a8.553,8.553 0 0 0 2.67,-6.368l0,-50.212a15.922,15.922 0 0 1 2.224,-8.249a66.427,66.427 0 0 0 -10.083,-6.8l-5.487,5.209l-13.618,0l0,-6.974l1.474,-2.275l-8.372,-4.551l-5.482,5.548l-13.347,0l0,-19.83a1.233,1.233 0 0 1 0.892,-1.3zm25.5,-274.56l13.2,0l0,29.377l-13.192,0l0,-29.376l-0.008,-0.001zm0,31.113l13.2,0l0,30.825l-13.192,0l0,-30.824l-0.008,-0.001zm-111.123,167.038l0,-7.582l11.654,3.842l-11.654,3.74zm72.131,102.309l-34.4,0l0,-3.037l34.4,0l0,3.037zm34.1,-151.576a106.185,106.185 0 0 0 5.486,17.8l-26.835,0a143.355,143.355 0 0 0 7.859,-17.8l13.49,0zm-25.649,-148.883l12.482,0l0,29.377l-12.482,0l0,-29.377zm0,31.113l12.482,0l0,30.825l-12.482,0l0,-30.825zm-42.4,65.052l0,-37.035l2.583,0c1.737,0 2.151,0.59 2.151,2.4l0,32.013c0,1.772 -0.776,2.623 -2.187,2.623l-2.547,0l0,-0.001zm1.175,62.7l0,-15.19l20.314,0l0.89,-1.447a63.565,63.565 0 0 0 -9.934,-8.248l-5.784,7.814l-5.486,0l0,-30.969a1.067,1.067 0 0 1 0.89,-1.013l0.049,-0.016l2.62,-0.1l0,-11.415c0,-1.628 0.635,-2.116 2.228,-2.116l0.187,0l0,-37.035c-1.882,0 -2.409,-1.291 -2.409,-2.666l0,-17.825q9.043,10.276 12.456,20.26q1.778,4.633 5.189,4.63a5.5,5.5 0 0 0 4.226,-1.664a6.4,6.4 0 0 0 1.557,-4.558q0,-4.484 -6.673,-11.216a40.672,40.672 0 0 0 -16.013,-9.912a183.035,183.035 0 0 0 19.276,-27.641a17.039,17.039 0 0 1 1.7,-2.341c1.652,-1.836 3.785,-0.182 3.785,2.433l0,61.7a0.594,0.594 0 0 0 0.742,0.579q0.294,0 11.417,-0.434c0,-3.285 3.843,-6.657 5.993,-6.657l6.489,0l0,18.859c3.844,0 5.9,0.787 5.9,5.431l0,12.192c0,5.755 -5.527,6.038 -9.341,6.038q-1.04,8.829 -3.559,22.142l-29.8,0l0.3,1.736l29.212,0q-1.335,6.947 -4.152,16.931l-20.914,0l0.3,1.737l20.166,0a126.634,126.634 0 0 1 -6.673,17.8l-20.91,0l0,0.02l-2.1,0a30.929,30.929 0 0 0 -12.135,-7.834l-0.003,-0.005zm4.918,46.966l0,-34.05a64.731,64.731 0 0 1 2.793,8.936q0.889,4.053 4.893,4.052a4.68,4.68 0 0 0 3.855,-1.881a6.628,6.628 0 0 0 1.187,-4.92a18.814,18.814 0 0 0 -3.948,-9.407l20.555,0a106.227,106.227 0 0 1 -29.332,37.275l-0.003,-0.005zm28.3,-20.917a99.941,99.941 0 0 0 11.418,-16.353l28.469,0a77.122,77.122 0 0 0 5.528,10.422l-2.266,1.951l-14.835,0l0,6.585l-20.9,0l-7.414,-2.605zm5.227,59.974l0.507,-0.02l0.2,0.055l-0.707,-0.035zm1.593,-31.9l22.951,0l0,-1.882l-22.951,0l0,-15.422c0,-3.491 1.526,-6.423 5.487,-6.423l18.087,0l0,-6.585l10.215,0a3.264,3.264 0 0 1 3.578,3.549l0,18.3l-14.416,0l0,1.881l14.416,0l0,22.576l-18.461,0l0,6.584l-18.906,0l0,-22.572l0,-0.006zm-292.239,55.8l21.015,0l-21.015,12.053l0,6.186l29.618,0l0,-5.765l-20.652,0l20.652,-11.753l0,-6.485l-29.618,0l0,5.764zm14.85,-37.078q-7.977,0 -12.218,4.5q-3.454,3.354 -3.456,9.7t3.456,9.7q4.24,4.479 12.218,4.479q8.136,0 12.216,-4.479q3.454,-3.356 3.456,-9.7t-3.456,-9.7q-4.08,-4.492 -12.216,-4.491l0,-0.009zm7.7,20.036q-2.722,2.158 -7.7,2.159q-5,0 -7.716,-2.159a7.066,7.066 0 0 1 -2.713,-5.835a7.148,7.148 0 0 1 2.713,-5.865q2.712,-2.19 7.716,-2.19t7.715,2.19a7.148,7.148 0 0 1 2.713,5.865a7.057,7.057 0 0 1 -2.723,5.848l-0.005,-0.013zm46.744,-16.765l13,0l0,6.631l8.021,0a1.008,1.008 0 0 0 0.183,0.026c0.071,0 0.361,-0.009 0.846,-0.026l0.54,0l0,-0.019c1.741,-0.063 5.106,-0.191 10.18,-0.389l0,-33.854a25.584,25.584 0 0 1 2.224,-9.7a70.924,70.924 0 0 0 -9.638,-6.223l-5.783,5.065l-18.974,0q-8.6,-3.039 -12.9,-4.2l0,53.267a0.6,0.6 0 0 0 0.742,0.579q0.444,0 11.565,-0.434l0,-10.714l-0.006,-0.009zm0,-36.757l13,0l0,35.02l-13,0l0,-35.02zm-68.571,119.297l16.043,-6.662l0,-9.191l-16.043,6.664l0,9.19l0,-0.001zm0,16.1l16.043,-6.663l0,-9.199l-16.043,6.663l0,9.19l0,0.009zm0,-32.191l16.043,-6.663l0,-0.279l-16.043,0l0,6.942zm200.929,49.743l0,6.186l11.105,0l18.512,9.9l0,-7.011l-12.9,-5.884l12.9,-6.148l0,-7.29l-18.512,10.243l-11.105,0l0,0.004zm-33.451,-18.974l0,1.549a0.646,0.646 0 0 0 0.741,0.723q0.741,0 11.863,-0.434l0,-42.256a26.055,26.055 0 0 1 2.37,-10.275a60.508,60.508 0 0 0 -10.231,-6.8l-5.931,5.5l-35.7,0l0,-18.694c-4.2,0 -5.369,-2.618 -5.369,-5.467l0,-7.1a1.029,1.029 0 0 1 0.741,-1.013l2.521,-0.868a1.343,1.343 0 0 0 1.038,-1.447l-12.227,-0.623l0,0a1.685,1.685 0 0 1 0,-3.3l-0.13,0a101.034,101.034 0 0 0 29.705,-16.685a93.331,93.331 0 0 0 35.291,20.4a2.056,2.056 0 0 0 2.52,-1.157a62.855,62.855 0 0 1 6.821,-10.709a96.984,96.984 0 0 1 -37.218,-15.2a111.61,111.61 0 0 0 23.28,-35.889a13.917,13.917 0 0 1 3.41,-4.776a66.253,66.253 0 0 0 -10.678,-8.819l-6.524,5.065l-35.489,0c-4.779,0 -6.515,-2.308 -6.515,-6.023l0,-8.472a34.147,34.147 0 0 0 5.676,-7.068q6.819,-11.429 6.82,-29.232l0,-6.66l20.463,0l0,15.3c0,4.245 -2.538,6.171 -6.2,6.171l-3.26,0l0,13.457l5.824,0c1.834,0.248 3.662,0.961 4.406,2.839a8.381,8.381 0 0 0 2.2,3.908q3.113,2.9 14.976,2.894q11.712,0 14.679,-2.171q3.409,-2.458 3.411,-8.972a4.455,4.455 0 0 1 -3.707,-3.618q-1.04,-6.22 -1.632,-14.616l-1.185,-0.289q-1.188,7.815 -2.966,15.918a4.664,4.664 0 0 1 -1.335,2.6q-0.743,0.581 -6.672,0.579q-5.338,0 -5.931,-0.579t-0.594,-3.762l0,-21.269a21.086,21.086 0 0 1 2.225,-8.828a89.847,89.847 0 0 0 -9.638,-6.078l-5.339,4.775l-19.131,0q-10.084,-3.472 -12.752,-4.2l0,12.59q0,17.223 -3.633,27.785t-14.457,17.655l0.742,1.013a2.241,2.241 0 0 1 2.167,2.313c0,1.728 -0.091,3.91 -0.091,3.91l58.124,0a105.5,105.5 0 0 1 -18.09,36.757a87.565,87.565 0 0 1 -20.63,-25.87l-12.747,0l0,2.811l10.22,0a92.369,92.369 0 0 0 17.522,29.716q-16.012,16.932 -40.627,26.049l0.049,0.084l-0.049,0l0,1.237l3.4,0c5.366,0 8.46,1.4 8.46,4.292l0,29.326l-39.885,0q-6.97,-2.606 -13.493,-4.342l0,58.609a0.721,0.721 0 0 0 0.889,0.724q0.592,0 11.714,-0.434l0,-0.894c0,-3.576 1.821,-7.2 7.187,-7.2l28.768,0l0,11.73l1.232,0a3.379,3.379 0 0 1 3.59,3.174l0,49.789a0.647,0.647 0 0 0 0.741,0.723q1.037,0 5.709,-0.289t6.3,-0.29l0,-1.269a3.854,3.854 0 0 1 3.761,-3.527l1.608,0l0,-60.041l30.066,0c4.346,0 6.826,2.474 6.826,5.54zm-6.571,-50.114l6.571,0l0,42.835l-6.571,0l0,-42.835zm-6.07,-144.142l7.451,0l0,13.009l-5.13,0c-1.022,-0.2 -2.321,-1.047 -2.321,-4.035l0,-8.974zm-45.548,156.54l-1.644,0l0,30.437l-30.262,0l0,-42.835l35.084,0l0,9.418c0,2.329 -1.409,2.98 -3.178,2.98zm9.6,43.906l-4.357,0c-1.007,0 -1.881,-0.926 -2.065,-2.434a4.876,4.876 0 0 1 -0.04,-0.593l0,-37.384c0,-0.29 0.015,-0.563 0.04,-0.825c0.153,-1.621 0.839,-2.67 2.791,-2.67l3.633,0l0,43.906l-0.002,0zm32.5,-13.469l-20.801,0l0,-37.88c0,-2.1 1.76,-3.152 4.33,-3.152a4.677,4.677 0 0 0 3.635,-1.8l12.842,0l0,42.835l-0.006,-0.003zm17.363,44.119a14.681,14.681 0 0 0 -10.9,4.451a15.887,15.887 0 0 0 0,21.918a14.683,14.683 0 0 0 10.9,4.451a15.41,15.41 0 1 0 0,-30.82zm7.747,23.095a10.7,10.7 0 1 1 3.216,-7.679a10.607,10.607 0 0 1 -3.218,7.679l0.002,0zm24.432,-83.23l29.617,0l0,-6.145l-29.619,0l0,6.146l0.002,-0.001zm-184.888,47.178l0,-6.129l-14.757,6.129l14.757,0zm-6.679,-360.229l0,-6.146a9.359,9.359 0 0 1 -3.436,-1.533a5.8,5.8 0 0 1 -2.13,-4.853a6.309,6.309 0 0 1 2.482,-5.118q2.481,-2.014 7.464,-2.014t7.708,1.908a6.038,6.038 0 0 1 2.723,5.215a6.1,6.1 0 0 1 -1.928,4.9a8.446,8.446 0 0 1 -3.216,1.515l0,6.187a10.7,10.7 0 0 0 5.526,-2.027q4.9,-3.418 4.9,-10.809a12.181,12.181 0 0 0 -3.657,-9.1q-4.198,-4.119 -11.955,-4.119q-7.171,0 -11.293,3.616q-4.1,3.617 -4.1,9.935a11.826,11.826 0 0 0 3.035,8.376a13.342,13.342 0 0 0 7.877,4.067zm26.868,-2.855a15.266,15.266 0 0 0 7.353,1.465l18.205,0l0,-6.288l-18.19,0a10.3,10.3 0 0 1 -4.457,-0.72q-2.49,-1.121 -2.489,-4.863q0,-3.762 2.489,-4.883a10.3,10.3 0 0 1 4.457,-0.721l18.19,0l0,-6.287l-18.205,0a15.272,15.272 0 0 0 -7.353,1.463q-4.822,2.747 -4.823,10.427t4.823,10.407zm-22.1,33.621q8.136,0 12.216,-4.479q3.454,-3.356 3.456,-9.7t-3.456,-9.7q-4.08,-4.5 -12.216,-4.5q-7.977,0 -12.218,4.5q-3.462,3.351 -3.462,9.699t3.456,9.7q4.244,4.482 12.219,4.48l0.005,0zm-7.716,-20.046q2.712,-2.19 7.716,-2.19t7.715,2.19a7.148,7.148 0 0 1 2.713,5.865a7.057,7.057 0 0 1 -2.723,5.835q-2.722,2.158 -7.7,2.159q-5,0 -7.716,-2.159a7.066,7.066 0 0 1 -2.713,-5.835a7.148,7.148 0 0 1 2.703,-5.864l0.005,-0.001zm98.044,111.486a126.332,126.332 0 0 0 -11.566,-8.249l-7.117,7.815l-46.151,0l0.3,1.881l63.351,0l1.183,-1.447zm5.19,19.537a69,69 0 0 0 -11.566,-8.394l-7.266,8.1l-55.032,0l0.3,1.736l72.677,0l0.887,-1.442zm-109.65,212.115l16.043,-6.663l0,-9.189l-16.043,6.663l0,9.19l0,-0.001zm-0.723,-122.246l29.618,0l0,-7.406l-29.618,0l0,7.407l0,-0.001zm29.618,-34.985l-5.243,0l0,8.9l-24.375,0l0,6.227l24.375,0l0,8.852l5.244,0l0,-23.979l-0.001,0zm-19.531,-1.057l0,-6.147a9.354,9.354 0 0 1 -3.436,-1.532a5.8,5.8 0 0 1 -2.13,-4.853a6.311,6.311 0 0 1 2.482,-5.119q2.481,-2.013 7.464,-2.014t7.708,1.909a6.037,6.037 0 0 1 2.723,5.215a6.1,6.1 0 0 1 -1.928,4.9a8.449,8.449 0 0 1 -3.216,1.515l0,6.187a10.7,10.7 0 0 0 5.521,-2.025q4.9,-3.417 4.9,-10.808c0,-0.181 -0.017,-0.353 -0.023,-0.53l72.8,0l0.889,-1.3a122.241,122.241 0 0 0 -11.417,-8.249l-7.118,7.815l-55.305,0a11.794,11.794 0 0 0 -3.478,-6.836q-4.2,-4.114 -11.955,-4.114q-7.171,0 -11.293,3.616q-4.1,3.616 -4.1,9.936a11.826,11.826 0 0 0 3.035,8.376a13.344,13.344 0 0 0 7.877,4.058z" fill-rule="evenodd"/>
 </g>

</svg>